<?xml version="1.0" standalone="no"?>
<!DOCTYPE svg PUBLIC "-//W3C//DTD SVG 20010904//EN"
 "http://www.w3.org/TR/2001/REC-SVG-20010904/DTD/svg10.dtd">
<svg version="1.0" xmlns="http://www.w3.org/2000/svg"
 width="177.000000pt" height="173.000000pt" viewBox="0 0 177.000000 173.000000"
 preserveAspectRatio="xMidYMid meet">
<metadata>
Created by potrace 1.16, written by Peter Selinger 2001-2019
</metadata>
<g transform="translate(0.000000,173.000000) scale(0.100000,-0.100000)"
fill="#000000" stroke="none">
<path d="M1170 1677 c0 -2 -20 -59 -45 -127 -46 -126 -49 -150 -19 -150 36 0
162 -77 220 -136 103 -103 164 -261 164 -425 l0 -59 -286 0 c-157 0 -284 -4
-282 -8 2 -5 26 -57 53 -116 48 -103 51 -107 77 -102 23 5 74 33 124 70 14 11
225 -82 232 -102 7 -23 -122 -138 -194 -173 -38 -18 -70 -33 -71 -34 -2 -1 23
-56 54 -124 44 -92 61 -120 73 -116 88 33 264 190 335 299 44 67 97 189 120
274 22 81 30 252 16 342 -45 284 -232 542 -482 660 -57 26 -89 36 -89 27z"/>
<path d="M966 1107 c-16 -45 -31 -88 -34 -94 -3 -10 28 -13 137 -13 l141 0
-11 26 c-17 46 -66 99 -116 126 -87 47 -84 48 -117 -45z"/>
</g>
</svg>
